<svg xmlns="http://www.w3.org/2000/svg" width="110" height="38" viewBox="0 0 110 38">
  <defs>
    <style>
      .a {
        fill: #fff;
      }

      .b {
        fill: #0072BC;;
      }
    </style>
  </defs>
  <rect class="a" width="109.83" height="38"/>
  <g>
    <g>
      <polygon points="20.36 8.07 11.14 8.07 11.14 11.97 13.51 11.97 13.51 19.67 7.12 8.07 0.28 8.07 0.28 11.94 2.66 11.94 2.66 24.36 0.28 24.36 0.28 28.24 9.5 28.24 9.5 24.36 7.13 24.36 7.13 16.75 13.56 28.24 17.98 28.24 17.98 11.94 20.36 11.94 20.36 8.07"/>
      <polygon points="21.85 8.07 21.85 15.76 25.73 15.76 25.73 12.08 28.13 12.08 28.13 24.36 25.28 24.36 25.27 28.24 36.26 28.24 36.26 24.36 33.32 24.36 33.32 12.08 35.72 12.08 35.72 15.76 39.59 15.76 39.59 8.07 21.85 8.07"/>
      <polygon points="41.09 8.07 41.09 15.76 44.96 15.76 44.96 12.08 47.37 12.08 47.37 24.36 44.51 24.36 44.51 28.24 55.5 28.24 55.5 24.36 52.55 24.36 52.55 12.08 54.96 12.08 54.96 15.76 58.83 15.76 58.83 8.07 41.09 8.07"/>
    </g>
    <path class="b" d="M107,7.61C103.51,1.58,98.28,0,94.57,0a13.24,13.24,0,0,0-5,.91A13.26,13.26,0,0,0,84.46,0,14,14,0,0,0,72.08,7.61a20.19,20.19,0,1,0,34.87,0ZM88.11,7.12A9.57,9.57,0,0,1,89.52,6h0a9.49,9.49,0,0,1,1.4,1.13,8.08,8.08,0,0,1,2.22,6.1,3.64,3.64,0,0,1-7.27,0A8.08,8.08,0,0,1,88.11,7.12Zm1.41,26A15.39,15.39,0,0,1,74.13,17.76h0a13.9,13.9,0,0,1,3.55-9.64,9.39,9.39,0,0,1,6.49-3.34h.09c-3.38,3.36-3.2,8.66-3.2,8.66a8.4,8.4,0,0,0,2.34,5.37,8.34,8.34,0,0,0,11.78.46c.16-.15.31-.3.46-.46A8.39,8.39,0,0,0,98,13.44s.18-5.3-3.2-8.66h.14a9.42,9.42,0,0,1,6.5,3.34,13.9,13.9,0,0,1,3.48,9.63A15.39,15.39,0,0,1,89.52,33.14Z"/>
  </g>
</svg>
